<svg id="Layer_1" data-name="Layer 1" xmlns="http://www.w3.org/2000/svg" xmlns:xlink="http://www.w3.org/1999/xlink" viewBox="0 0 295.9 302.2"><defs><style>.cls-1{fill:#fff;}.cls-2{clip-path:url(#clip-path);}.cls-3{clip-path:url(#clip-path-3);}</style><clipPath id="clip-path" transform="translate(44.5 59.3)"><path class="cls-1" d="M16.9,83a61.14,61.14,0,0,0-1,18.6,3.28,3.28,0,0,1-2.2,1.4c-3.3.4-5.2-3.4-4.3-6.9a39.17,39.17,0,0,1,2.4-6.9S2.3,94.4.5,102.9s1.2,17.8,10,23.7a75.22,75.22,0,0,0,9.3,5.3,45.74,45.74,0,0,1-.7-8.3,50.61,50.61,0,0,1,.5-6.8h0a25.58,25.58,0,0,1,.5-2.7.37.37,0,0,1,.1-.3c.3-1.3.6-2.5.9-3.7.1-.2.1-.4.2-.6.2-.5.3-1,.5-1.5l.3-.9.3-.9.3-.9c.1-.3.2-.5.3-.8a10.09,10.09,0,0,1,.7-1.5l.3-.6.6-1.2c.1-.2.2-.3.2-.5.3-.5.6-1.1.9-1.6.1-.1.1-.2.2-.3.3-.5.6-1,.9-1.4.1-.1.1-.1.1-.2.4-.6.7-1.1,1.1-1.6h0c.4-.5.8-1.1,1.2-1.6l.1-.1a18.26,18.26,0,0,1,1.3-1.6h0A50,50,0,0,1,44.4,81c-3.9-3.3-5.7-9.8-4.2-16a110.29,110.29,0,0,1,6.4-18.2S21.5,60.5,16.9,83"/></clipPath><clipPath id="clip-path-3" transform="translate(44.5 59.3)"><path class="cls-1" d="M114.4,17.5c1.7,14.4,9.3,22.7-.4,30.8s-18.2,8.2-24.7,4.6c-9.8-5.4-4.4-23.3-4.4-23.3s-14.6-.5-19.2,15.6c-3,10.5-3.2,22.9-6.1,30.6a54.19,54.19,0,0,1,8.1-.7,48.7,48.7,0,0,1,45.5,65.8,6.2,6.2,0,0,0-.9-3.2c-3-4.6-4.6-5.6-4.6-5.6s-.1,6.1-3.6,9.4-9.9,3.3-13.2.4-4-10,.5-13.2,11.4-3.4,13.1-11.1-9.7-6.7-11-10.3,2.8-11.9,2.8-11.9-10.8,1.6-9.9,8.8,4.7,11.4-.2,15.5-9.1,4.1-12.4,2.3c-4.9-2.7-2.2-11.7-2.2-11.7a10.26,10.26,0,0,0-9.7,7.8c-2.3,8.1-1.3,18.4-7,19.1-4.3.5-6.8-4.5-5.8-9.1a55.15,55.15,0,0,1,3.2-9.1s-12.6,6.9-14.9,18.2,1.5,23.5,13.2,31.4,28,15.2,42.7,10.9c6.3-1.8,10.9-5,13.7-9.8a64.15,64.15,0,0,0,21.3-2.5c12.8-3.8,22.3-10.4,27.7-20.1a45.85,45.85,0,0,0,5.7-18.6s-11.6,12.8-18.7,9.1,1-20.3,10.4-25.7S171.9,93.4,166,84.2s-9.2-11.1-9.2-11.1-.2,12.2-7.1,18.8-19.6,6.5-26.3.8-8.1-19.9.9-26.3,22.7-6.8,26.1-22.2-19.3-13.3-21.8-20.5S134.2,0,134.2,0s-21.6,3.1-19.8,17.5"/></clipPath></defs><title>flame</title><path class="cls-1" d="M16.9,83a61.14,61.14,0,0,0-1,18.6,3.28,3.28,0,0,1-2.2,1.4c-3.3.4-5.2-3.4-4.3-6.9a39.17,39.17,0,0,1,2.4-6.9S2.3,94.4.5,102.9s1.2,17.8,10,23.7a75.22,75.22,0,0,0,9.3,5.3,45.74,45.74,0,0,1-.7-8.3,50.61,50.61,0,0,1,.5-6.8h0a25.58,25.58,0,0,1,.5-2.7.37.37,0,0,1,.1-.3c.3-1.3.6-2.5.9-3.7.1-.2.1-.4.2-.6.2-.5.3-1,.5-1.5l.3-.9.3-.9.3-.9c.1-.3.2-.5.3-.8a10.09,10.09,0,0,1,.7-1.5l.3-.6.6-1.2c.1-.2.2-.3.2-.5.3-.5.6-1.1.9-1.6.1-.1.1-.2.2-.3.3-.5.6-1,.9-1.4.1-.1.1-.1.1-.2.4-.6.7-1.1,1.1-1.6h0c.4-.5.8-1.1,1.2-1.6l.1-.1a18.26,18.26,0,0,1,1.3-1.6h0A50,50,0,0,1,44.4,81c-3.9-3.3-5.7-9.8-4.2-16a110.29,110.29,0,0,1,6.4-18.2S21.5,60.5,16.9,83" transform="translate(44.5 59.3)"/><g class="cls-2"><rect class="cls-1" x="43.2" y="106.1" width="47.9" height="85.1"/></g><path class="cls-1" d="M16.9,83a61.14,61.14,0,0,0-1,18.6,3.28,3.28,0,0,1-2.2,1.4c-3.3.4-5.2-3.4-4.3-6.9a39.17,39.17,0,0,1,2.4-6.9S2.3,94.4.5,102.9s1.2,17.8,10,23.7a75.22,75.22,0,0,0,9.3,5.3,45.74,45.74,0,0,1-.7-8.3,50.61,50.61,0,0,1,.5-6.8h0a25.58,25.58,0,0,1,.5-2.7.37.37,0,0,1,.1-.3c.3-1.3.6-2.5.9-3.7.1-.2.1-.4.2-.6.2-.5.3-1,.5-1.5l.3-.9.3-.9.3-.9c.1-.3.2-.5.3-.8a10.09,10.09,0,0,1,.7-1.5l.3-.6.6-1.2c.1-.2.2-.3.2-.5.3-.5.6-1.1.9-1.6.1-.1.1-.2.2-.3.3-.5.6-1,.9-1.4.1-.1.1-.1.1-.2.4-.6.7-1.1,1.1-1.6h0c.4-.5.8-1.1,1.2-1.6l.1-.1a18.26,18.26,0,0,1,1.3-1.6h0A50,50,0,0,1,44.4,81c-3.9-3.3-5.7-9.8-4.2-16a110.29,110.29,0,0,1,6.4-18.2S21.5,60.5,16.9,83" transform="translate(44.5 59.3)"/><g class="cls-2"><polygon class="cls-1" points="79.2 212 128 127.4 55.2 85.4 6.4 170 79.2 212"/></g><path class="cls-1" d="M114.4,17.5c1.7,14.4,9.3,22.7-.4,30.8s-18.2,8.2-24.7,4.6c-9.8-5.4-4.4-23.3-4.4-23.3s-14.6-.5-19.2,15.6c-3,10.5-3.2,22.9-6.1,30.6a54.19,54.19,0,0,1,8.1-.7,48.7,48.7,0,0,1,45.5,65.8,6.2,6.2,0,0,0-.9-3.2c-3-4.6-4.6-5.6-4.6-5.6s-.1,6.1-3.6,9.4-9.9,3.3-13.2.4-4-10,.5-13.2,11.4-3.4,13.1-11.1-9.7-6.7-11-10.3,2.8-11.9,2.8-11.9-10.8,1.6-9.9,8.8,4.7,11.4-.2,15.5-9.1,4.1-12.4,2.3c-4.9-2.7-2.2-11.7-2.2-11.7a10.26,10.26,0,0,0-9.7,7.8c-2.3,8.1-1.3,18.4-7,19.1-4.3.5-6.8-4.5-5.8-9.1a55.15,55.15,0,0,1,3.2-9.1s-12.6,6.9-14.9,18.2,1.5,23.5,13.2,31.4,28,15.2,42.7,10.9c6.3-1.8,10.9-5,13.7-9.8a64.15,64.15,0,0,0,21.3-2.5c12.8-3.8,22.3-10.4,27.7-20.1a45.85,45.85,0,0,0,5.7-18.6s-11.6,12.8-18.7,9.1,1-20.3,10.4-25.7S171.9,93.4,166,84.2s-9.2-11.1-9.2-11.1-.2,12.2-7.1,18.8-19.6,6.5-26.3.8-8.1-19.9.9-26.3,22.7-6.8,26.1-22.2-19.3-13.3-21.8-20.5S134.2,0,134.2,0s-21.6,3.1-19.8,17.5" transform="translate(44.5 59.3)"/><g class="cls-3"><rect class="cls-1" x="79.5" y="59.2" width="136.8" height="183.7"/></g><path class="cls-1" d="M114.4,17.5c1.7,14.4,9.3,22.7-.4,30.8s-18.2,8.2-24.7,4.6c-9.8-5.4-4.4-23.3-4.4-23.3s-14.6-.5-19.2,15.6c-3,10.5-3.2,22.9-6.1,30.6a54.19,54.19,0,0,1,8.1-.7,48.7,48.7,0,0,1,45.5,65.8,6.2,6.2,0,0,0-.9-3.2c-3-4.6-4.6-5.6-4.6-5.6s-.1,6.1-3.6,9.4-9.9,3.3-13.2.4-4-10,.5-13.2,11.4-3.4,13.1-11.1-9.7-6.7-11-10.3,2.8-11.9,2.8-11.9-10.8,1.6-9.9,8.8,4.7,11.4-.2,15.5-9.1,4.1-12.4,2.3c-4.9-2.7-2.2-11.7-2.2-11.7a10.26,10.26,0,0,0-9.7,7.8c-2.3,8.1-1.3,18.4-7,19.1-4.3.5-6.8-4.5-5.8-9.1a55.15,55.15,0,0,1,3.2-9.1s-12.6,6.9-14.9,18.2,1.5,23.5,13.2,31.4,28,15.2,42.7,10.9c6.3-1.8,10.9-5,13.7-9.8a64.15,64.15,0,0,0,21.3-2.5c12.8-3.8,22.3-10.4,27.7-20.1a45.85,45.85,0,0,0,5.7-18.6s-11.6,12.8-18.7,9.1,1-20.3,10.4-25.7S171.9,93.4,166,84.2s-9.2-11.1-9.2-11.1-.2,12.2-7.1,18.8-19.6,6.5-26.3.8-8.1-19.9.9-26.3,22.7-6.8,26.1-22.2-19.3-13.3-21.8-20.5S134.2,0,134.2,0s-21.6,3.1-19.8,17.5" transform="translate(44.5 59.3)"/><g class="cls-3"><polygon class="cls-1" points="182.1 302.2 295.9 105.2 113.7 0 0 197 182.1 302.2"/></g></svg>