<svg xmlns="http://www.w3.org/2000/svg" viewBox="0 0 537 622.3"><defs><style>.cls-1,.cls-2{fill:#ffffff;}.cls-2{font-size:35.07px;font-family:HelveticaNeue-Light, Helvetica Neue;}</style></defs><title>Asset 1</title><g id="Layer_2" data-name="Layer 2"><g id="Layer_1-2" data-name="Layer 1"><path class="cls-1" d="M174.51,192.52c-9.27-7.9-13.5-23.34-10-37.88,5.19-21.78,15.3-43.28,15.3-43.28S120,143.88,109,197.26a145.55,145.55,0,0,0-2.27,44.25,7.51,7.51,0,0,1-5.34,3.25c-7.75,1-12.32-8.07-10.35-16.34A97.86,97.86,0,0,1,96.88,212S74.18,224.35,70,244.62s2.76,42.27,23.78,56.33A158.47,158.47,0,0,0,116,313.45a114.58,114.58,0,0,1-.57-35.9v0q.46-3.27,1.11-6.49l.16-.8q.94-4.52,2.22-8.89.2-.69.41-1.37c.37-1.22.77-2.43,1.18-3.63.25-.72.49-1.44.75-2.15s.53-1.39.8-2.08.54-1.39.83-2.08.49-1.21.75-1.81q.77-1.78,1.59-3.52c.21-.46.44-.91.66-1.36q.69-1.42,1.42-2.81l.58-1.11q1-1.9,2.1-3.76l.39-.65q1-1.74,2.12-3.43l.34-.53q1.28-2,2.64-3.9l0,0q1.39-2,2.85-3.84l.11-.15q1.49-1.92,3.06-3.78h0A115.92,115.92,0,0,1,174.51,192.52ZM409.09,326.72c-17-9,2.49-48.27,24.69-61.07s43.95-44,29.9-65.7-22-26.43-22-26.43-.51,29-16.91,44.54-46.71,15.45-62.6,1.95S343,172.7,364.36,157.46s54.06-16,62.16-52.6-45.82-31.55-52-48.56S387.9,0,387.9,0,336.9,7.39,341,41.6s22.22,53.79-1.05,73.16-43.31,19.38-58.69,10.84C258,112.7,270.9,70.3,270.9,70.3s-34.83-1.18-45.76,37.08c-7.13,25-7.59,54.34-14.6,72.69a116.72,116.72,0,0,1,19.36-1.64c63.83,0,115.57,51.63,115.57,115.32A114.71,114.71,0,0,1,338,334.64a13.94,13.94,0,0,0-2.23-7.51c-7.05-10.9-11-13.26-11-13.26s-.25,14.57-8.49,22.36-23.45,7.76-31.43,1-9.63-23.76,1.07-31.41,27.14-8.05,31.21-26.4S294.09,263.56,291,255s6.7-28.26,6.7-28.26-25.6,3.71-23.53,20.88,11.15,27-.53,36.72-21.74,9.73-29.46,5.44C232.51,283.33,239,262,239,262s-17.49-.59-23,18.61-3.1,43.62-16.76,45.33c-10.24,1.28-16.3-10.67-13.69-21.61a129.67,129.67,0,0,1,7.68-21.73s-30,16.33-35.52,43.13,3.65,55.9,31.44,74.49,66.62,36,101.56,25.8c14.93-4.37,26.05-12,32.62-23.16A156.92,156.92,0,0,0,374,397c30.48-8.92,53-24.59,66-47.79S453.6,305.2,453.6,305.2,426.1,335.7,409.09,326.72Z"/><path class="cls-1" d="M38,527.28a30.53,30.53,0,0,0-21.47,8.56V506.69H0v91.79H15.14v-8.31c6.58,7.44,13.16,10.54,23.21,10.54,14.9,0,25.94-8.31,31.28-22a41.48,41.48,0,0,0,3-15C72.61,544.4,58,527.28,38,527.28Zm-1.74,58.3c-12.66,0-20.73-10.3-20.73-22.45A20.63,20.63,0,0,1,36,542.42c12,0,20.11,9.8,20.11,21.46S48.53,585.58,36.24,585.58Zm98.3-47.26h-.25a18.75,18.75,0,0,0-2.48-2.85,30.41,30.41,0,0,0-20.36-8.19C91.1,527.28,77,543.9,77,563.63s12.78,37.09,33.51,37.09c8.44,0,18.62-4.34,24.08-10.79v8.56h15.14V529.64H134.54Zm-20.6,47.26c-11.79,0-20.48-9.68-20.48-21.21,0-11.78,8.19-22,20.48-22S134,552.09,134,563.88,126.23,585.58,113.94,585.58Zm62.31-49.87H176v-6.08H160.86v68.85h16.51v-38.7c0-10,4.22-16.13,15-16.5v-16C184.19,527.28,180.84,529,176.25,535.72Zm57.39,1a26.83,26.83,0,0,1,24,14.39h9.56c-5.58-13.89-19-22.2-33.76-22.2-19.86,0-36.49,15.75-36.49,35.72,0,20.22,16.51,35.48,36.49,35.48,15.76,0,26.81-7.94,33.76-21.58h-9.56c-4.72,9.05-13.9,13.77-24,13.77a27.6,27.6,0,0,1-28.05-27.91C205.59,548.74,218.12,536.71,233.64,536.71Zm101.9,5.83h-.25c-5.83-9.18-15.76-13.64-26.44-13.64-20,0-36.49,15.13-36.49,35.48s16.13,35.73,36.49,35.73c10.55,0,20.48-4.59,26.44-13.52h.25v11.91h8.69V530.63h-8.69Zm-26.68,49.74c-15.89,0-27.8-11.66-27.8-27.54s11.67-28,27.8-28c15.39,0,27.18,12.78,27.18,27.91S324.24,592.28,308.85,592.28ZM428,528.9c-9.93,0-17.62,4.71-22.84,13-4.72-8.44-13.16-13-22.84-13-7.45,0-14.4,3.1-18.49,9.55v-7.82h-8.69v67.85h8.69V559.16c0-12,5.09-22.45,18.49-22.45s18.49,10.42,18.49,22.45v39.32h8.69V559.16c0-12,5.09-22.45,18.49-22.45s18.49,10.42,18.49,22.45v39.32h8.69V558.17C455.19,541.55,445.39,528.9,428,528.9Zm72.5,0a31.73,31.73,0,0,0-26.44,13.64h-.25V530.63h-8.69V622.3h8.69V586.58h.25a31.77,31.77,0,0,0,26.44,13.52c20.35,0,36.49-15.26,36.49-35.73S520.49,528.9,500.51,528.9Zm0,63.39c-15.39,0-27.18-12.53-27.18-27.66s11.79-27.91,27.18-27.91c16.13,0,27.8,12,27.8,28S516.4,592.28,500.51,592.28Z"/><path class="cls-1" d="M426.33,492a7.51,7.51,0,0,1-2.5-4,8.71,8.71,0,0,1,1-6.9l.26.18a8.39,8.39,0,0,0-1,6.65,7.18,7.18,0,0,0,2.66,4c-2.08-2.27-1.25-5.95,2-7.41,2.12-.95,3.84-4.89,2.26-7.33-1.39-2.19-1-4.55,1.4-5.81C420.66,470.56,415,486.17,426.33,492Zm-.83-14,1,.89,1.25-.48-.55,1.21.84,1-1.32-.14-.71,1.12-.27-1.32-1.28-.32,1.16-.66Zm1.86,14.45h0Zm0,0h0Zm-.75.8a7.55,7.55,0,0,1-4.58,1.19,8.61,8.61,0,0,1-6.22-3.08l.23-.21a8.31,8.31,0,0,0,6,3,7.28,7.28,0,0,0,4.6-1.3c-2.8,1.27-6-.66-6.39-4.17-.27-2.32-3.47-5.17-6.26-4.42-2.51.66-4.64-.41-5.09-3.14C404.5,492.12,417.6,502.32,426.62,493.28Zm-12.39-4.14-.07-1.32,1,.89,1.23-.48-.55,1.21.84,1-1.32-.14-.71,1.11-.25-1.3-1.3-.32Zm13.39,9a8.64,8.64,0,0,1-4.87,5l-.11-.29a8.36,8.36,0,0,0,4.68-4.82,7.39,7.39,0,0,0,.2-4.78c.32,3.07-2.5,5.54-5.94,4.82-2.28-.48-6,1.69-6.13,4.6-.14,2.59-1.82,4.3-4.54,3.87,9.08,7.63,22.82-1.76,17-13.18A7.62,7.62,0,0,1,427.62,498.16Zm-6.51,6-.71,1.12-.27-1.32-1.28-.32L420,503l-.07-1.32,1,.89,1.23-.48-.55,1.21.84,1Zm7.28-11.88a7.51,7.51,0,0,1,4.44,1.71,8.69,8.69,0,0,1,3.24,6.19l-.32,0a8.3,8.3,0,0,0-3.11-6,7.24,7.24,0,0,0-4.46-1.66c3,.63,4.47,4.1,2.72,7.15-1.16,2-.23,6.23,2.47,7.28,2.42.95,3.5,3.05,2.26,5.53C445.67,506.23,441,490.21,428.39,492.27ZM436,502.9l-.71,1.13-.27-1.3-1.28-.32,1.16-.66-.09-1.32,1,.89,1.25-.48-.57,1.21.85,1Zm-8.52-11.56a7.55,7.55,0,0,1,3-3.61,8.61,8.61,0,0,1,6.85-1.18l-.07.3a8.27,8.27,0,0,0-6.61,1.14,7.22,7.22,0,0,0-3,3.78c1.5-2.71,5.26-3,7.64-.42,1.56,1.73,5.81,2.14,7.66-.11,1.64-2,4-2.41,5.94-.45C446.05,479.3,429.52,478.74,427.51,491.34Zm12-3-.71,1.13-.27-1.32-1.28-.32,1.15-.66-.07-1.32,1,.89,1.24-.48-.55,1.21.83,1Z"/><text class="cls-2" transform="translate(186.2 505.92)"><tspan xml:space="preserve">HONG KONG      2016</tspan></text></g></g></svg>