<svg xmlns="http://www.w3.org/2000/svg" viewBox="0 0 488.16 121.77"><defs><style>.cls-1,.cls-2{fill:#1d1d1b;}.cls-2{font-size:22.6px;font-family:HelveticaNeue-Light, Helvetica Neue;}</style></defs><title>Asset 2</title><g id="Layer_2" data-name="Layer 2"><g id="Layer_1-2" data-name="Layer 1"><path class="cls-1" d="M28.47,51.89c-2.5-2.13-3.64-6.29-2.7-10.21A69.49,69.49,0,0,1,29.9,30S13.78,38.78,10.83,53.17a39.23,39.23,0,0,0-.61,11.93A2,2,0,0,1,8.77,66c-2.09.26-3.32-2.17-2.79-4.4a26.37,26.37,0,0,1,1.57-4.43S1.43,60.47.31,65.93A14.38,14.38,0,0,0,6.72,81.12a42.73,42.73,0,0,0,6,3.37,30.89,30.89,0,0,1-.15-9.68h0q.12-.88.3-1.75l0-.22q.25-1.22.6-2.4l.11-.37c.1-.33.21-.65.32-1l.2-.58.21-.56.22-.56.2-.49q.21-.48.43-1l.18-.37.38-.76.16-.3q.27-.51.57-1l.1-.17q.28-.47.57-.93l.09-.14q.35-.53.71-1.05h0q.37-.53.77-1l0,0q.4-.52.83-1h0A31.24,31.24,0,0,1,28.47,51.89ZM91.7,88.06c-4.59-2.42.67-13,6.66-16.46s11.85-11.85,8.06-17.71-5.92-7.12-5.92-7.12-.14,7.82-4.56,12-12.59,4.16-16.87.53-5.17-12.76.58-16.86S94.22,38.12,96.4,28.26s-12.35-8.5-14-13.09S86,0,86,0,72.24,2,73.35,11.21s6,14.5-.28,19.72S61.4,36.16,57.25,33.85c-6.27-3.48-2.8-14.91-2.8-14.91s-9.39-.32-12.33,10c-1.92,6.73-2,14.65-3.94,19.59a31.46,31.46,0,0,1,5.22-.44A31.08,31.08,0,0,1,72.53,90.2a3.76,3.76,0,0,0-.6-2c-1.9-2.94-3-3.58-3-3.58s-.07,3.93-2.29,6a6.84,6.84,0,0,1-8.47.26c-2.15-1.83-2.59-6.4.29-8.46s7.31-2.17,8.41-7.12-6.2-4.27-7-6.57,1.81-7.62,1.81-7.62-6.9,1-6.34,5.63,3,7.28-.14,9.9-5.86,2.62-7.94,1.47c-3.15-1.75-1.4-7.48-1.4-7.48a6.46,6.46,0,0,0-6.19,5c-1.48,5.18-.84,11.76-4.52,12.22-2.76.34-4.39-2.88-3.69-5.82a35,35,0,0,1,2.07-5.86s-8.09,4.4-9.57,11.62a19,19,0,0,0,8.48,20.08c7.49,5,18,9.71,27.37,7,4-1.18,7-3.23,8.79-6.24A42.29,42.29,0,0,0,82.24,107c8.22-2.4,14.29-6.63,17.78-12.88a29,29,0,0,0,3.68-11.87S96.28,90.48,91.7,88.06Z"/><path class="cls-1" d="M150.06,57.39a20.69,20.69,0,0,0-14.55,5.8V43.44H124.32v62.19h10.26V100c4.46,5,8.91,7.14,15.73,7.14,10.09,0,17.58-5.63,21.19-14.88a28.1,28.1,0,0,0,2-10.17C173.52,69,163.6,57.39,150.06,57.39Zm-1.18,39.5c-8.58,0-14-7-14-15.21a14,14,0,0,1,13.88-14c8.16,0,13.62,6.64,13.62,14.54S157.21,96.9,148.88,96.9Zm66.6-32h-.17a12.7,12.7,0,0,0-1.68-1.93,20.61,20.61,0,0,0-13.79-5.55c-13.79,0-23.38,11.26-23.38,24.63s8.66,25.13,22.71,25.13c5.72,0,12.61-2.94,16.31-7.31v5.8h10.26V59H215.48Zm-14,32c-8,0-13.88-6.56-13.88-14.37,0-8,5.55-14.88,13.88-14.88s13.62,6.56,13.62,14.54S209.85,96.9,201.52,96.9Zm42.22-33.79h-.17V59H233.31v46.65H244.5V79.41c0-6.81,2.86-10.93,10.18-11.18V57.39C249.12,57.39,246.85,58.57,243.74,63.11Zm38.88.67a18.18,18.18,0,0,1,16.23,9.75h6.48a24.26,24.26,0,0,0-22.87-15c-13.45,0-24.72,10.67-24.72,24.2,0,13.7,11.18,24,24.72,24,10.68,0,18.16-5.38,22.87-14.62h-6.48c-3.2,6.13-9.42,9.33-16.23,9.33a18.83,18.83,0,1,1,0-37.65Zm69,4h-.17c-4-6.22-10.68-9.24-17.91-9.24-13.54,0-24.72,10.25-24.72,24s10.93,24.21,24.72,24.21a21.1,21.1,0,0,0,17.91-9.16h.17v8.07h5.89v-46h-5.89Zm-18.08,33.7c-10.76,0-18.84-7.9-18.84-18.66s7.9-19,18.84-19a18.83,18.83,0,0,1,0,37.65Zm80.73-42.95c-6.73,0-11.94,3.19-15.47,8.82a17.19,17.19,0,0,0-15.47-8.82A14.38,14.38,0,0,0,370.84,65v-5.3H365v46h5.89V79c0-8.15,3.45-15.21,12.53-15.21S395.9,70.84,395.9,79v26.64h5.89V79c0-8.15,3.45-15.21,12.53-15.21S426.85,70.84,426.85,79v26.64h5.89V78.32C432.73,67.06,426.09,58.49,414.32,58.49Zm49.12,0a21.5,21.5,0,0,0-17.91,9.24h-.17V59.66h-5.89v62.11h5.89V97.57h.17a21.52,21.52,0,0,0,17.91,9.16c13.79,0,24.72-10.34,24.72-24.21S477,58.49,463.44,58.49Zm0,42.95a18.83,18.83,0,0,1,0-37.65c10.93,0,18.84,8.15,18.84,19S474.2,101.43,463.44,101.43Z"/><path class="cls-1" d="M415.4,38.82a4.84,4.84,0,0,1-1.61-2.56,5.61,5.61,0,0,1,.64-4.45l.17.11a5.41,5.41,0,0,0-.62,4.29,4.63,4.63,0,0,0,1.71,2.57A3,3,0,0,1,417,34c1.36-.61,2.48-3.15,1.46-4.73a2.43,2.43,0,0,1,.9-3.75C411.74,25,408.11,35.07,415.4,38.82Zm-.53-9,.62.58.8-.31-.36.78.54.65-.85-.09-.46.72L415,31.3l-.82-.21.75-.43Zm1.2,9.31h0Zm0,0h0Zm-.48.52a4.87,4.87,0,0,1-3,.77,5.55,5.55,0,0,1-4-2l.15-.14a5.36,5.36,0,0,0,3.87,1.93,4.69,4.69,0,0,0,3-.84,3,3,0,0,1-4.12-2.69c-.17-1.49-2.23-3.33-4-2.85a2.41,2.41,0,0,1-3.28-2C401.33,38.91,409.77,45.48,415.58,39.65Zm-8-2.67,0-.85.63.57.79-.31-.35.78.54.65-.85-.09-.46.71-.16-.84-.84-.21Zm8.63,5.81A5.56,5.56,0,0,1,413.09,46l-.07-.18a5.39,5.39,0,0,0,3-3.1,4.76,4.76,0,0,0,.13-3.08,3,3,0,0,1-3.83,3.11c-1.47-.31-3.85,1.09-4,3a2.41,2.41,0,0,1-2.92,2.49c5.85,4.91,14.71-1.13,10.94-8.49A4.91,4.91,0,0,1,416.23,42.8ZM412,46.66l-.46.72-.17-.85-.82-.21.74-.42,0-.85.63.58.79-.31-.35.78.54.65ZM416.72,39a4.84,4.84,0,0,1,2.86,1.11,5.6,5.6,0,0,1,2.09,4h-.21a5.35,5.35,0,0,0-2-3.84,4.66,4.66,0,0,0-2.87-1.07,3,3,0,0,1,1.75,4.61c-.74,1.31-.15,4,1.59,4.69a2.41,2.41,0,0,1,1.45,3.56C427.86,48,424.86,37.67,416.72,39Zm4.92,6.85-.46.73-.17-.84-.82-.21.75-.42-.06-.85.63.58.8-.31-.37.78.55.65Zm-5.49-7.45a4.87,4.87,0,0,1,1.93-2.33,5.55,5.55,0,0,1,4.41-.76l0,.2a5.33,5.33,0,0,0-4.26.74,4.65,4.65,0,0,0-1.91,2.43,3,3,0,0,1,4.93-.27c1,1.12,3.75,1.38,4.94-.07a2.39,2.39,0,0,1,3.83-.29C428.11,30.65,417.45,30.29,416.16,38.4Zm7.7-2-.46.72-.17-.85-.82-.21.74-.43,0-.85.62.58.8-.31-.35.78.54.66Z"/><text class="cls-2" transform="translate(260.65 47.8)"><tspan xml:space="preserve">HONG KONG      2016</tspan></text></g></g></svg>