<?xml version="1.0" encoding="utf-8"?>
<!-- Generator: Adobe Illustrator 21.0.0, SVG Export Plug-In . SVG Version: 6.00 Build 0)  -->
<svg version="1.1" id="Layer_1" xmlns="http://www.w3.org/2000/svg" xmlns:xlink="http://www.w3.org/1999/xlink" x="0px" y="0px"
	 viewBox="0 0 488.2 121.8" style="enable-background:new 0 0 488.2 121.8;" xml:space="preserve">
<style type="text/css">
	.st0{fill:#FFFFFF;}
	.st1{font-family:'HelveticaNeue-Light';}
	.st2{font-size:22.6026px;}
</style>
<g>
	<g>
		<g>
			<g>
				<path class="st0" d="M28.5,51.9c-2.5-2.1-3.6-6.3-2.7-10.2c1.4-5.9,4.1-11.7,4.1-11.7s-16.1,8.8-19.1,23.2
					c-0.8,3.9-1,8-0.6,11.9c-0.4,0.5-0.8,0.8-1.4,0.9c-2.1,0.3-3.3-2.2-2.8-4.4c0.5-2.2,1.6-4.4,1.6-4.4s-6.1,3.3-7.2,8.8
					c-1.1,5.5,0.7,11.4,6.4,15.2c1.8,1.2,3.8,2.4,6,3.4c-0.3-1.7-0.5-3.5-0.5-5.3c0-1.5,0.1-2.9,0.3-4.4c0,0,0,0,0,0
					c0.1-0.6,0.2-1.2,0.3-1.8c0-0.1,0-0.1,0-0.2c0.2-0.8,0.4-1.6,0.6-2.4c0-0.1,0.1-0.2,0.1-0.4c0.1-0.3,0.2-0.7,0.3-1
					c0.1-0.2,0.1-0.4,0.2-0.6c0.1-0.2,0.1-0.4,0.2-0.6c0.1-0.2,0.1-0.4,0.2-0.6c0.1-0.2,0.1-0.3,0.2-0.5c0.1-0.3,0.3-0.6,0.4-1
					c0.1-0.1,0.1-0.2,0.2-0.4c0.1-0.3,0.3-0.5,0.4-0.8c0.1-0.1,0.1-0.2,0.2-0.3c0.2-0.3,0.4-0.7,0.6-1c0-0.1,0.1-0.1,0.1-0.2
					c0.2-0.3,0.4-0.6,0.6-0.9c0,0,0.1-0.1,0.1-0.1c0.2-0.4,0.5-0.7,0.7-1.1c0,0,0,0,0,0c0.2-0.4,0.5-0.7,0.8-1c0,0,0,0,0,0
					c0.3-0.3,0.5-0.7,0.8-1c0,0,0,0,0,0C22.1,56.2,25.1,53.7,28.5,51.9z M91.7,88.1c-4.6-2.4,0.7-13,6.7-16.5
					c6-3.5,11.8-11.9,8.1-17.7c-3.8-5.9-5.9-7.1-5.9-7.1s-0.1,7.8-4.6,12c-4.4,4.2-12.6,4.2-16.9,0.5c-4.3-3.6-5.2-12.8,0.6-16.9
					c5.7-4.1,14.6-4.3,16.8-14.2c2.2-9.9-12.3-8.5-14-13.1C80.7,10.6,86,0,86,0S72.2,2,73.4,11.2c1.1,9.2,6,14.5-0.3,19.7
					c-6.3,5.2-11.7,5.2-15.8,2.9c-6.3-3.5-2.8-14.9-2.8-14.9s-9.4-0.3-12.3,10c-1.9,6.7-2,14.6-3.9,19.6c1.7-0.3,3.4-0.4,5.2-0.4
					c17.2,0,31.2,13.9,31.2,31.1c0,3.9-0.7,7.6-2,11c0-0.7-0.2-1.4-0.6-2c-1.9-2.9-3-3.6-3-3.6s-0.1,3.9-2.3,6
					c-2.2,2.1-6.3,2.1-8.5,0.3c-2.2-1.8-2.6-6.4,0.3-8.5c2.9-2.1,7.3-2.2,8.4-7.1c1.1-4.9-6.2-4.3-7-6.6c-0.8-2.3,1.8-7.6,1.8-7.6
					s-6.9,1-6.3,5.6c0.6,4.6,3,7.3-0.1,9.9c-3.1,2.6-5.9,2.6-7.9,1.5c-3.1-1.7-1.4-7.5-1.4-7.5s-4.7-0.2-6.2,5
					c-1.5,5.2-0.8,11.8-4.5,12.2c-2.8,0.3-4.4-2.9-3.7-5.8c0.7-2.9,2.1-5.9,2.1-5.9s-8.1,4.4-9.6,11.6c-1.5,7.2,1,15.1,8.5,20.1
					c7.5,5,18,9.7,27.4,7c4-1.2,7-3.2,8.8-6.2c4.6,0.2,9.2-0.3,13.7-1.6c8.2-2.4,14.3-6.6,17.8-12.9c3.5-6.3,3.7-11.9,3.7-11.9
					S96.3,90.5,91.7,88.1z"/>
			</g>
		</g>
	</g>
	<g>
		<g>
			<path class="st0" d="M150.1,57.4c-5.4,0-10.8,2-14.5,5.8V43.4h-11.2v62.2h10.3V100c4.5,5,8.9,7.1,15.7,7.1
				c10.1,0,17.6-5.6,21.2-14.9c1.3-3.2,2-6.7,2-10.2C173.5,69,163.6,57.4,150.1,57.4z M148.9,96.9c-8.6,0-14-7-14-15.2
				c0-7.6,6.1-14,13.9-14c8.2,0,13.6,6.6,13.6,14.5C162.3,90.2,157.2,96.9,148.9,96.9z M215.5,64.9h-0.2c-0.4-0.7-1.2-1.4-1.7-1.9
				c-3.8-3.4-8.7-5.5-13.8-5.5c-13.8,0-23.4,11.3-23.4,24.6c0,13.3,8.7,25.1,22.7,25.1c5.7,0,12.6-2.9,16.3-7.3v5.8h10.3V59h-10.3
				V64.9z M201.5,96.9c-8,0-13.9-6.6-13.9-14.4c0-8,5.6-14.9,13.9-14.9c8.2,0,13.6,6.6,13.6,14.5C215.1,90.2,209.8,96.9,201.5,96.9z
				 M243.7,63.1h-0.2V59h-10.3v46.6h11.2V79.4c0-6.8,2.9-10.9,10.2-11.2V57.4C249.1,57.4,246.9,58.6,243.7,63.1z M282.6,63.8
				c6.9,0,13,3.7,16.2,9.7h6.5c-3.8-9.4-12.9-15-22.9-15c-13.5,0-24.7,10.7-24.7,24.2c0,13.7,11.2,24,24.7,24
				c10.7,0,18.2-5.4,22.9-14.6h-6.5c-3.2,6.1-9.4,9.3-16.2,9.3c-10.7,0-19-8.2-19-18.9C263.6,71.9,272.1,63.8,282.6,63.8z
				 M351.7,67.7h-0.2c-4-6.2-10.7-9.2-17.9-9.2c-13.5,0-24.7,10.3-24.7,24c0,13.9,10.9,24.2,24.7,24.2c7.1,0,13.9-3.1,17.9-9.2h0.2
				v8.1h5.9v-46h-5.9V67.7z M333.6,101.4c-10.8,0-18.8-7.9-18.8-18.7c0-10.8,7.9-19,18.8-19c10.4,0,18.4,8.7,18.4,18.9
				C352,92.9,344,101.4,333.6,101.4z M414.3,58.5c-6.7,0-11.9,3.2-15.5,8.8c-3.2-5.7-8.9-8.8-15.5-8.8c-5,0-9.8,2.1-12.5,6.5v-5.3
				H365v46h5.9V79c0-8.2,3.4-15.2,12.5-15.2c9.1,0,12.5,7.1,12.5,15.2v26.6h5.9V79c0-8.2,3.4-15.2,12.5-15.2
				c9.1,0,12.5,7.1,12.5,15.2v26.6h5.9V78.3C432.7,67.1,426.1,58.5,414.3,58.5z M463.4,58.5c-7.2,0-13.7,3.3-17.9,9.2h-0.2v-8.1
				h-5.9v62.1h5.9V97.6h0.2c4,5.9,10.8,9.2,17.9,9.2c13.8,0,24.7-10.3,24.7-24.2C488.2,68.7,477,58.5,463.4,58.5z M463.4,101.4
				c-10.4,0-18.4-8.5-18.4-18.7c0-10.3,8-18.9,18.4-18.9c10.9,0,18.8,8.2,18.8,19C482.3,93.5,474.2,101.4,463.4,101.4z"/>
		</g>
	</g>
	<g>
		<g>
			<path class="st0" d="M415.4,38.8c-0.7-0.6-1.3-1.5-1.6-2.6c-0.4-1.5-0.2-3.1,0.6-4.4l0.2,0.1c-0.8,1.3-1,2.8-0.6,4.3
				c0.3,1.1,0.9,2,1.7,2.6c-1.3-1.5-0.8-3.8,1.3-4.8c1.4-0.6,2.5-3.2,1.5-4.7c-0.9-1.4-0.7-2.9,0.9-3.7
				C411.7,25,408.1,35.1,415.4,38.8z M414.9,29.8l0.6,0.6l0.8-0.3l-0.4,0.8l0.5,0.7l-0.8-0.1l-0.5,0.7l-0.2-0.8l-0.8-0.2l0.7-0.4
				L414.9,29.8z M416.1,39.1C416.1,39.1,416.1,39.1,416.1,39.1C416.1,39.1,416.1,39.1,416.1,39.1L416.1,39.1z M416.1,39.1
				C416.1,39.1,416.1,39.1,416.1,39.1C416.1,39.1,416.1,39.1,416.1,39.1L416.1,39.1z M415.6,39.7c-0.8,0.5-1.8,0.8-3,0.8
				c-1.6-0.1-3-0.8-4-2l0.1-0.1c1,1.2,2.4,1.9,3.9,1.9c1.1,0,2.2-0.3,3-0.8c-1.8,0.8-3.9-0.4-4.1-2.7c-0.2-1.5-2.2-3.3-4-2.9
				c-1.6,0.4-3-0.3-3.3-2C401.3,38.9,409.8,45.5,415.6,39.7z M407.6,37l0-0.9l0.6,0.6l0.8-0.3l-0.4,0.8l0.5,0.7l-0.8-0.1l-0.5,0.7
				l-0.2-0.8l-0.8-0.2L407.6,37z M416.2,42.8c-0.6,1.5-1.7,2.6-3.1,3.2l-0.1-0.2c1.4-0.6,2.5-1.7,3-3.1c0.4-1,0.4-2.2,0.1-3.1
				c0.2,2-1.6,3.6-3.8,3.1c-1.5-0.3-3.8,1.1-4,3c-0.1,1.7-1.2,2.8-2.9,2.5c5.8,4.9,14.7-1.1,10.9-8.5
				C416.7,40.7,416.6,41.7,416.2,42.8z M412,46.7l-0.5,0.7l-0.2-0.9l-0.8-0.2l0.7-0.4l0-0.9l0.6,0.6l0.8-0.3l-0.4,0.8l0.5,0.7
				L412,46.7z M416.7,39c1,0,2,0.4,2.9,1.1c1.2,1,2,2.4,2.1,4l-0.2,0c-0.1-1.5-0.8-2.9-2-3.8c-0.9-0.7-1.9-1.1-2.9-1.1
				c1.9,0.4,2.9,2.6,1.8,4.6c-0.7,1.3-0.1,4,1.6,4.7c1.6,0.6,2.3,2,1.5,3.6C427.9,48,424.9,37.7,416.7,39z M421.6,45.9l-0.5,0.7
				l-0.2-0.8l-0.8-0.2l0.7-0.4l-0.1-0.9l0.6,0.6l0.8-0.3l-0.4,0.8l0.5,0.7L421.6,45.9z M416.2,38.4c0.3-0.9,1-1.7,1.9-2.3
				c1.3-0.9,2.9-1.1,4.4-0.8l0,0.2c-1.5-0.4-3-0.1-4.3,0.7c-0.9,0.6-1.6,1.5-1.9,2.4c1-1.7,3.4-2,4.9-0.3c1,1.1,3.7,1.4,4.9-0.1
				c1.1-1.3,2.6-1.6,3.8-0.3C428.1,30.6,417.5,30.3,416.2,38.4z M423.9,36.5l-0.5,0.7l-0.2-0.9l-0.8-0.2l0.7-0.4l0-0.9l0.6,0.6
				l0.8-0.3l-0.4,0.8l0.5,0.7L423.9,36.5z"/>
		</g>
	</g>
	<text transform="matrix(1 0 0 1 260.6494 47.7974)" class="st0 st1 st2">HONG KONG      2016</text>
</g>
</svg>
