<?xml version="1.0" encoding="utf-8"?>
<!-- Generator: Adobe Illustrator 21.0.0, SVG Export Plug-In . SVG Version: 6.00 Build 0)  -->
<svg version="1.1" id="Layer_1" xmlns="http://www.w3.org/2000/svg" xmlns:xlink="http://www.w3.org/1999/xlink" x="0px" y="0px"
	 viewBox="0 0 595.3 841.9" style="enable-background:new 0 0 595.3 841.9;" xml:space="preserve">
<style type="text/css">
	.st0{font-family:'HelveticaNeue-Light';}
	.st1{font-size:35.0734px;}
	.st2{font-size:22.6026px;}
</style>
<g>
	<g>
		<g>
			<g>
				<path d="M203.5,218c-9.3-7.9-13.5-23.3-10-37.9c5.2-21.8,15.3-43.3,15.3-43.3S149,169.3,138,222.7c-3,14.6-3.8,29.5-2.3,44.3
					c-1.3,1.8-3,3-5.3,3.3c-7.7,1-12.3-8.1-10.3-16.3c2-8.3,5.8-16.4,5.8-16.4s-22.7,12.3-26.9,32.6c-4.2,20.3,2.8,42.3,23.8,56.3
					c6.7,4.5,14.2,8.9,22.2,12.5c-1.1-6.4-1.7-13-1.7-19.7c0-5.5,0.4-10.9,1.1-16.2c0,0,0,0,0,0c0.3-2.2,0.7-4.3,1.1-6.5
					c0.1-0.3,0.1-0.5,0.2-0.8c0.6-3,1.4-6,2.2-8.9c0.1-0.5,0.3-0.9,0.4-1.4c0.4-1.2,0.8-2.4,1.2-3.6c0.2-0.7,0.5-1.4,0.8-2.2
					c0.3-0.7,0.5-1.4,0.8-2.1c0.3-0.7,0.5-1.4,0.8-2.1c0.2-0.6,0.5-1.2,0.8-1.8c0.5-1.2,1-2.4,1.6-3.5c0.2-0.5,0.4-0.9,0.7-1.4
					c0.5-0.9,0.9-1.9,1.4-2.8c0.2-0.4,0.4-0.7,0.6-1.1c0.7-1.3,1.4-2.5,2.1-3.8c0.1-0.2,0.3-0.4,0.4-0.6c0.7-1.2,1.4-2.3,2.1-3.4
					c0.1-0.2,0.2-0.4,0.3-0.5c0.9-1.3,1.7-2.6,2.6-3.9c0,0,0,0,0,0c0.9-1.3,1.9-2.6,2.9-3.8c0,0,0.1-0.1,0.1-0.1
					c1-1.3,2-2.5,3.1-3.8c0,0,0,0,0,0C179.8,234,190.9,224.8,203.5,218z M438.1,352.2c-17-9,2.5-48.3,24.7-61.1
					c22.2-12.8,43.9-44,29.9-65.7c-14.1-21.7-22-26.4-22-26.4s-0.5,29-16.9,44.5c-16.4,15.5-46.7,15.5-62.6,1.9
					c-15.9-13.5-19.2-47.3,2.1-62.6c21.3-15.2,54.1-16,62.2-52.6c8.1-36.6-45.8-31.6-52-48.6c-6.2-17,13.3-56.3,13.3-56.3
					s-51,7.4-46.9,41.6c4.1,34.2,22.2,53.8-1.1,73.2c-23.3,19.4-43.3,19.4-58.7,10.8c-23.2-12.9-10.4-55.3-10.4-55.3
					s-34.8-1.2-45.8,37.1c-7.1,25-7.6,54.3-14.6,72.7c6.3-1.1,12.8-1.6,19.4-1.6c63.8,0,115.6,51.6,115.6,115.3
					c0,14.4-2.7,28.2-7.5,40.9c0-2.6-0.7-5.2-2.2-7.5c-7.1-10.9-11-13.3-11-13.3s-0.3,14.6-8.5,22.4c-8.2,7.8-23.4,7.8-31.4,1
					c-8-6.8-9.6-23.8,1.1-31.4c10.7-7.6,27.1-8.1,31.2-26.4c4.1-18.4-23-15.8-26.1-24.4c-3.1-8.5,6.7-28.3,6.7-28.3
					s-25.6,3.7-23.5,20.9c2.1,17.2,11.2,27-0.5,36.7c-11.7,9.7-21.7,9.7-29.5,5.4c-11.7-6.5-5.2-27.8-5.2-27.8s-17.5-0.6-23,18.6
					c-5.5,19.2-3.1,43.6-16.8,45.3c-10.2,1.3-16.3-10.7-13.7-21.6c2.6-10.9,7.7-21.7,7.7-21.7s-30,16.3-35.5,43.1
					c-5.5,26.8,3.6,55.9,31.4,74.5c27.8,18.6,66.6,36,101.6,25.8c14.9-4.4,26.1-12,32.6-23.2c17.1,0.7,34.1-1,50.6-5.9
					c30.5-8.9,53-24.6,66-47.8c12.9-23.2,13.6-44.1,13.6-44.1S455.1,361.1,438.1,352.2z"/>
			</g>
		</g>
	</g>
	<g>
		<g>
			<path d="M67,552.7c-7.9,0-15.9,3-21.5,8.6v-29.2H29v91.8h15.1v-8.3c6.6,7.4,13.2,10.5,23.2,10.5c14.9,0,25.9-8.3,31.3-22
				c1.9-4.7,3-9.9,3-15C101.6,569.8,87,552.7,67,552.7z M65.2,611c-12.7,0-20.7-10.3-20.7-22.5c0-11.3,9.1-20.7,20.5-20.7
				c12,0,20.1,9.8,20.1,21.5C85.1,601.1,77.5,611,65.2,611z M163.6,563.8h-0.2c-0.6-1-1.7-2.1-2.5-2.9c-5.6-5.1-12.8-8.2-20.4-8.2
				c-20.4,0-34.5,16.6-34.5,36.3c0,19.6,12.8,37.1,33.5,37.1c8.4,0,18.6-4.3,24.1-10.8v8.6h15.1v-68.8h-15.1V563.8z M142.9,611
				c-11.8,0-20.5-9.7-20.5-21.2c0-11.8,8.2-22,20.5-22c12.2,0,20.1,9.7,20.1,21.5C163.1,601.1,155.2,611,142.9,611z M205.3,561.2
				H205v-6.1h-15.1v68.8h16.5v-38.7c0-10,4.2-16.1,15-16.5v-16C213.2,552.7,209.9,554.5,205.3,561.2z M262.6,562.2
				c10.2,0,19.2,5.5,24,14.4h9.6c-5.6-13.9-19-22.2-33.8-22.2c-19.9,0-36.5,15.8-36.5,35.7c0,20.2,16.5,35.5,36.5,35.5
				c15.8,0,26.8-7.9,33.8-21.6h-9.6c-4.7,9.1-13.9,13.8-24,13.8c-15.8,0-28.1-12.2-28.1-27.9C234.6,574.2,247.1,562.2,262.6,562.2z
				 M364.5,568h-0.2c-5.8-9.2-15.8-13.6-26.4-13.6c-20,0-36.5,15.1-36.5,35.5c0,20.5,16.1,35.7,36.5,35.7c10.5,0,20.5-4.6,26.4-13.5
				h0.2v11.9h8.7v-67.9h-8.7V568z M337.9,617.7c-15.9,0-27.8-11.7-27.8-27.5c0-16,11.7-28,27.8-28c15.4,0,27.2,12.8,27.2,27.9
				S353.3,617.7,337.9,617.7z M457,554.3c-9.9,0-17.6,4.7-22.8,13c-4.7-8.4-13.2-13-22.8-13c-7.4,0-14.4,3.1-18.5,9.6v-7.8h-8.7
				v67.9h8.7v-39.3c0-12,5.1-22.5,18.5-22.5c13.4,0,18.5,10.4,18.5,22.5v39.3h8.7v-39.3c0-12,5.1-22.5,18.5-22.5
				c13.4,0,18.5,10.4,18.5,22.5v39.3h8.7v-40.3C484.2,567,474.4,554.3,457,554.3z M529.5,554.3c-10.7,0-20.2,4.8-26.4,13.6h-0.2
				v-11.9h-8.7v91.7h8.7V612h0.2c6,8.7,15.9,13.5,26.4,13.5c20.4,0,36.5-15.3,36.5-35.7C566,569.5,549.5,554.3,529.5,554.3z
				 M529.5,617.7c-15.4,0-27.2-12.5-27.2-27.7s11.8-27.9,27.2-27.9c16.1,0,27.8,12,27.8,28C557.3,606.1,545.4,617.7,529.5,617.7z"/>
		</g>
	</g>
	<g>
		<g>
			<path d="M455.3,517.4c-1.2-0.9-2.1-2.3-2.5-4c-0.6-2.3-0.3-4.8,1-6.9l0.3,0.2c-1.2,2-1.6,4.4-1,6.7c0.5,1.7,1.4,3.1,2.7,4
				c-2.1-2.3-1.3-5.9,2-7.4c2.1-0.9,3.8-4.9,2.3-7.3c-1.4-2.2-1-4.5,1.4-5.8C449.7,496,444,511.6,455.3,517.4z M454.5,503.5l1,0.9
				l1.2-0.5l-0.6,1.2l0.8,1l-1.3-0.1l-0.7,1.1l-0.3-1.3l-1.3-0.3l1.2-0.7L454.5,503.5z M456.4,517.9
				C456.4,517.9,456.4,517.9,456.4,517.9C456.4,517.9,456.4,517.9,456.4,517.9L456.4,517.9z M456.4,517.9
				C456.4,517.9,456.4,517.9,456.4,517.9C456.4,517.9,456.4,517.9,456.4,517.9L456.4,517.9z M455.6,518.7c-1.2,0.8-2.9,1.3-4.6,1.2
				c-2.4-0.1-4.7-1.2-6.2-3.1l0.2-0.2c1.5,1.8,3.7,2.9,6,3c1.7,0.1,3.4-0.4,4.6-1.3c-2.8,1.3-6-0.7-6.4-4.2
				c-0.3-2.3-3.5-5.2-6.3-4.4c-2.5,0.7-4.6-0.4-5.1-3.1C433.5,517.6,446.6,527.8,455.6,518.7z M443.2,514.6l-0.1-1.3l1,0.9l1.2-0.5
				l-0.6,1.2l0.8,1l-1.3-0.1l-0.7,1.1l-0.2-1.3l-1.3-0.3L443.2,514.6z M456.6,523.6c-0.9,2.3-2.6,4.1-4.9,5l-0.1-0.3
				c2.2-0.9,3.9-2.6,4.7-4.8c0.6-1.6,0.7-3.3,0.2-4.8c0.3,3.1-2.5,5.5-5.9,4.8c-2.3-0.5-6,1.7-6.1,4.6c-0.1,2.6-1.8,4.3-4.5,3.9
				c9.1,7.6,22.8-1.8,17-13.2C457.3,520.3,457.2,522,456.6,523.6z M450.1,529.6l-0.7,1.1l-0.3-1.3l-1.3-0.3l1.2-0.7l-0.1-1.3l1,0.9
				l1.2-0.5l-0.6,1.2l0.8,1L450.1,529.6z M457.4,517.7c1.5,0,3.1,0.6,4.4,1.7c1.9,1.5,3.1,3.8,3.2,6.2l-0.3,0
				c-0.1-2.3-1.3-4.5-3.1-6c-1.3-1.1-3-1.7-4.5-1.7c3,0.6,4.5,4.1,2.7,7.2c-1.2,2-0.2,6.2,2.5,7.3c2.4,0.9,3.5,3.1,2.3,5.5
				C474.7,531.7,470,515.6,457.4,517.7z M465,528.3l-0.7,1.1l-0.3-1.3l-1.3-0.3l1.2-0.7l-0.1-1.3l1,0.9l1.2-0.5l-0.6,1.2l0.9,1
				L465,528.3z M456.5,516.8c0.5-1.4,1.6-2.7,3-3.6c2-1.3,4.5-1.8,6.8-1.2l-0.1,0.3c-2.3-0.6-4.7-0.2-6.6,1.1
				c-1.4,0.9-2.5,2.3-3,3.8c1.5-2.7,5.3-3,7.6-0.4c1.6,1.7,5.8,2.1,7.7-0.1c1.6-2,4-2.4,5.9-0.4
				C475.1,504.7,458.5,504.2,456.5,516.8z M468.5,513.8l-0.7,1.1l-0.3-1.3l-1.3-0.3l1.2-0.7l-0.1-1.3l1,0.9l1.2-0.5l-0.6,1.2l0.8,1
				L468.5,513.8z"/>
		</g>
	</g>
	<text transform="matrix(1 0 0 1 215.21 531.3574)" class="st0 st1">HONG KONG      2016</text>
</g>
<g>
	<g>
		<g>
			<g>
				<path d="M78.5,740.1c-2.5-2.1-3.6-6.3-2.7-10.2c1.4-5.9,4.1-11.7,4.1-11.7s-16.1,8.8-19.1,23.2c-0.8,3.9-1,8-0.6,11.9
					c-0.4,0.5-0.8,0.8-1.4,0.9c-2.1,0.3-3.3-2.2-2.8-4.4c0.5-2.2,1.6-4.4,1.6-4.4s-6.1,3.3-7.2,8.8c-1.1,5.5,0.7,11.4,6.4,15.2
					c1.8,1.2,3.8,2.4,6,3.4c-0.3-1.7-0.5-3.5-0.5-5.3c0-1.5,0.1-2.9,0.3-4.4c0,0,0,0,0,0c0.1-0.6,0.2-1.2,0.3-1.8c0-0.1,0-0.1,0-0.2
					c0.2-0.8,0.4-1.6,0.6-2.4c0-0.1,0.1-0.2,0.1-0.4c0.1-0.3,0.2-0.7,0.3-1c0.1-0.2,0.1-0.4,0.2-0.6c0.1-0.2,0.1-0.4,0.2-0.6
					c0.1-0.2,0.1-0.4,0.2-0.6c0.1-0.2,0.1-0.3,0.2-0.5c0.1-0.3,0.3-0.6,0.4-1c0.1-0.1,0.1-0.2,0.2-0.4c0.1-0.3,0.3-0.5,0.4-0.8
					c0.1-0.1,0.1-0.2,0.2-0.3c0.2-0.3,0.4-0.7,0.6-1c0-0.1,0.1-0.1,0.1-0.2c0.2-0.3,0.4-0.6,0.6-0.9c0,0,0.1-0.1,0.1-0.1
					c0.2-0.4,0.5-0.7,0.7-1.1c0,0,0,0,0,0c0.2-0.4,0.5-0.7,0.8-1c0,0,0,0,0,0c0.3-0.3,0.5-0.7,0.8-1c0,0,0,0,0,0
					C72.1,744.4,75.1,741.9,78.5,740.1z M141.7,776.2c-4.6-2.4,0.7-13,6.7-16.5c6-3.5,11.8-11.9,8.1-17.7c-3.8-5.9-5.9-7.1-5.9-7.1
					s-0.1,7.8-4.6,12c-4.4,4.2-12.6,4.2-16.9,0.5c-4.3-3.6-5.2-12.8,0.6-16.9c5.7-4.1,14.6-4.3,16.8-14.2c2.2-9.9-12.3-8.5-14-13.1
					c-1.7-4.6,3.6-15.2,3.6-15.2s-13.7,2-12.6,11.2c1.1,9.2,6,14.5-0.3,19.7c-6.3,5.2-11.7,5.2-15.8,2.9c-6.3-3.5-2.8-14.9-2.8-14.9
					s-9.4-0.3-12.3,10c-1.9,6.7-2,14.6-3.9,19.6c1.7-0.3,3.4-0.4,5.2-0.4c17.2,0,31.2,13.9,31.2,31.1c0,3.9-0.7,7.6-2,11
					c0-0.7-0.2-1.4-0.6-2c-1.9-2.9-3-3.6-3-3.6s-0.1,3.9-2.3,6c-2.2,2.1-6.3,2.1-8.5,0.3c-2.2-1.8-2.6-6.4,0.3-8.5
					c2.9-2.1,7.3-2.2,8.4-7.1c1.1-4.9-6.2-4.3-7-6.6c-0.8-2.3,1.8-7.6,1.8-7.6s-6.9,1-6.3,5.6c0.6,4.6,3,7.3-0.1,9.9
					c-3.1,2.6-5.9,2.6-7.9,1.5c-3.1-1.7-1.4-7.5-1.4-7.5s-4.7-0.2-6.2,5c-1.5,5.2-0.8,11.8-4.5,12.2c-2.8,0.3-4.4-2.9-3.7-5.8
					c0.7-2.9,2.1-5.9,2.1-5.9s-8.1,4.4-9.6,11.6c-1.5,7.2,1,15.1,8.5,20.1c7.5,5,18,9.7,27.4,7c4-1.2,7-3.2,8.8-6.2
					c4.6,0.2,9.2-0.3,13.7-1.6c8.2-2.4,14.3-6.6,17.8-12.9c3.5-6.3,3.7-11.9,3.7-11.9S146.3,778.7,141.7,776.2z"/>
			</g>
		</g>
	</g>
	<g>
		<g>
			<path d="M200.1,745.6c-5.4,0-10.8,2-14.5,5.8v-19.8h-11.2v62.2h10.3v-5.6c4.5,5,8.9,7.1,15.7,7.1c10.1,0,17.6-5.6,21.2-14.9
				c1.3-3.2,2-6.7,2-10.2C223.5,757.2,213.6,745.6,200.1,745.6z M198.9,785.1c-8.6,0-14-7-14-15.2c0-7.6,6.1-14,13.9-14
				c8.2,0,13.6,6.6,13.6,14.5C212.3,778.4,207.2,785.1,198.9,785.1z M265.5,753.1h-0.2c-0.4-0.7-1.2-1.4-1.7-1.9
				c-3.8-3.4-8.7-5.5-13.8-5.5c-13.8,0-23.4,11.3-23.4,24.6c0,13.3,8.7,25.1,22.7,25.1c5.7,0,12.6-2.9,16.3-7.3v5.8h10.3v-46.6
				h-10.3V753.1z M251.5,785.1c-8,0-13.9-6.6-13.9-14.4c0-8,5.6-14.9,13.9-14.9c8.2,0,13.6,6.6,13.6,14.5
				C265.2,778.4,259.9,785.1,251.5,785.1z M293.7,751.3h-0.2v-4.1h-10.3v46.6h11.2v-26.2c0-6.8,2.9-10.9,10.2-11.2v-10.8
				C299.1,745.6,296.9,746.8,293.7,751.3z M332.6,752c6.9,0,13,3.7,16.2,9.7h6.5c-3.8-9.4-12.9-15-22.9-15
				c-13.5,0-24.7,10.7-24.7,24.2c0,13.7,11.2,24,24.7,24c10.7,0,18.2-5.4,22.9-14.6h-6.5c-3.2,6.1-9.4,9.3-16.2,9.3
				c-10.7,0-19-8.2-19-18.9C313.6,760.1,322.1,752,332.6,752z M401.7,755.9h-0.2c-4-6.2-10.7-9.2-17.9-9.2
				c-13.5,0-24.7,10.3-24.7,24c0,13.9,10.9,24.2,24.7,24.2c7.1,0,13.9-3.1,17.9-9.2h0.2v8.1h5.9v-46h-5.9V755.9z M383.6,789.6
				c-10.8,0-18.8-7.9-18.8-18.7c0-10.8,7.9-19,18.8-19c10.4,0,18.4,8.7,18.4,18.9S394,789.6,383.6,789.6z M464.3,746.7
				c-6.7,0-11.9,3.2-15.5,8.8c-3.2-5.7-8.9-8.8-15.5-8.8c-5,0-9.8,2.1-12.5,6.5v-5.3H415v46h5.9v-26.6c0-8.2,3.4-15.2,12.5-15.2
				c9.1,0,12.5,7.1,12.5,15.2v26.6h5.9v-26.6c0-8.2,3.4-15.2,12.5-15.2c9.1,0,12.5,7.1,12.5,15.2v26.6h5.9v-27.3
				C482.7,755.2,476.1,746.7,464.3,746.7z M513.4,746.7c-7.2,0-13.7,3.3-17.9,9.2h-0.2v-8.1h-5.9V810h5.9v-24.2h0.2
				c4,5.9,10.8,9.2,17.9,9.2c13.8,0,24.7-10.3,24.7-24.2C538.2,756.9,527,746.7,513.4,746.7z M513.4,789.6
				c-10.4,0-18.4-8.5-18.4-18.7s8-18.9,18.4-18.9c10.9,0,18.8,8.2,18.8,19C532.3,781.7,524.2,789.6,513.4,789.6z"/>
		</g>
	</g>
	<g>
		<g>
			<path d="M465.4,727c-0.7-0.6-1.3-1.5-1.6-2.6c-0.4-1.5-0.2-3.1,0.6-4.4l0.2,0.1c-0.8,1.3-1,2.8-0.6,4.3c0.3,1.1,0.9,2,1.7,2.6
				c-1.3-1.5-0.8-3.8,1.3-4.8c1.4-0.6,2.5-3.2,1.5-4.7c-0.9-1.4-0.7-2.9,0.9-3.7C461.7,713.2,458.1,723.3,465.4,727z M464.9,718
				l0.6,0.6l0.8-0.3l-0.4,0.8l0.5,0.7l-0.8-0.1l-0.5,0.7l-0.2-0.8l-0.8-0.2l0.7-0.4L464.9,718z M466.1,727.3
				C466.1,727.3,466.1,727.3,466.1,727.3C466.1,727.3,466.1,727.3,466.1,727.3L466.1,727.3z M466.1,727.3
				C466.1,727.3,466.1,727.3,466.1,727.3C466.1,727.3,466.1,727.3,466.1,727.3L466.1,727.3z M465.6,727.8c-0.8,0.5-1.8,0.8-3,0.8
				c-1.6-0.1-3-0.8-4-2l0.1-0.1c1,1.2,2.4,1.9,3.9,1.9c1.1,0,2.2-0.3,3-0.8c-1.8,0.8-3.9-0.4-4.1-2.7c-0.2-1.5-2.2-3.3-4-2.9
				c-1.6,0.4-3-0.3-3.3-2C451.3,727.1,459.8,733.7,465.6,727.8z M457.6,725.2l0-0.9l0.6,0.6l0.8-0.3l-0.4,0.8l0.5,0.7l-0.8-0.1
				l-0.5,0.7l-0.2-0.8l-0.8-0.2L457.6,725.2z M466.2,731c-0.6,1.5-1.7,2.6-3.1,3.2L463,734c1.4-0.6,2.5-1.7,3-3.1
				c0.4-1,0.4-2.2,0.1-3.1c0.2,2-1.6,3.6-3.8,3.1c-1.5-0.3-3.8,1.1-4,3c-0.1,1.7-1.2,2.8-2.9,2.5c5.8,4.9,14.7-1.1,10.9-8.5
				C466.7,728.8,466.6,729.9,466.2,731z M462,734.8l-0.5,0.7l-0.2-0.9l-0.8-0.2l0.7-0.4l0-0.9l0.6,0.6l0.8-0.3l-0.4,0.8l0.5,0.7
				L462,734.8z M466.7,727.2c1,0,2,0.4,2.9,1.1c1.2,1,2,2.4,2.1,4l-0.2,0c-0.1-1.5-0.8-2.9-2-3.8c-0.9-0.7-1.9-1.1-2.9-1.1
				c1.9,0.4,2.9,2.6,1.8,4.6c-0.7,1.3-0.1,4,1.6,4.7c1.6,0.6,2.3,2,1.5,3.6C477.9,736.2,474.9,725.9,466.7,727.2z M471.7,734
				l-0.5,0.7l-0.2-0.8l-0.8-0.2l0.7-0.4l-0.1-0.9l0.6,0.6l0.8-0.3l-0.4,0.8l0.6,0.7L471.7,734z M466.2,726.6c0.3-0.9,1-1.7,1.9-2.3
				c1.3-0.9,2.9-1.1,4.4-0.8l0,0.2c-1.5-0.4-3-0.1-4.3,0.7c-0.9,0.6-1.6,1.5-1.9,2.4c1-1.7,3.4-2,4.9-0.3c1,1.1,3.7,1.4,4.9-0.1
				c1.1-1.3,2.6-1.6,3.8-0.3C478.1,718.8,467.5,718.5,466.2,726.6z M473.9,724.6l-0.5,0.7l-0.2-0.9l-0.8-0.2l0.7-0.4l0-0.9l0.6,0.6
				l0.8-0.3l-0.4,0.8l0.5,0.7L473.9,724.6z"/>
		</g>
	</g>
	<text transform="matrix(1 0 0 1 310.6577 735.9834)" class="st0 st2">HONG KONG      2016</text>
</g>
</svg>
